<svg width="601" height="155" viewBox="0 0 601 155" fill="none" xmlns="http://www.w3.org/2000/svg">
<rect width="155" height="155" rx="77.5" fill="white"/>
<rect width="155" height="155" rx="77.5" fill="url(#paint0_linear_16_3)"/>
<path d="M109.637 90.2972L103.407 116.17C102.866 118.41 102.6 119.532 101.968 120.338C101.414 121.044 100.668 121.576 99.8195 121.87C98.8614 122.203 97.7146 122.094 95.4303 121.878L83.2395 120.725M109.637 90.2972L86.3271 88.0917M109.637 90.2972C115.977 88.0561 119.947 80.7554 120.577 74.0889C121.255 66.9282 117.033 60.3482 110.468 57.1542C109.799 56.8281 109.245 56.3075 108.878 55.6608C108.512 55.0141 108.349 54.2716 108.412 53.5307C108.97 47.6334 104.201 42.3516 97.7679 41.7429C96.7143 41.6432 95.681 41.6772 94.6837 41.8274C92.6226 42.1357 90.3815 41.8107 88.7479 40.5837C84.7001 37.5617 79.8935 35.7213 74.8625 35.2672C60.6997 33.9271 48.2266 43.363 46.9982 56.3464C46.8429 57.9874 45.6287 59.387 44.0235 60.0959C39.7788 61.9568 36.6987 65.7763 36.2594 70.4195C35.6961 76.3727 38.5024 82.1086 44.3702 84.1219M83.2395 120.725L86.3271 88.0917M83.2395 120.725L64.5919 118.961M86.3271 88.0917L67.6796 86.3273M44.3702 84.1219L45.6367 110.704L45.6359 110.714C45.7478 113.01 45.7987 114.163 46.2681 115.068C46.6803 115.866 47.3132 116.528 48.0913 116.976C48.97 117.482 50.1168 117.591 52.4011 117.807L64.5919 118.961M44.3702 84.1219L67.6796 86.3273M64.5919 118.961L67.6796 86.3273" stroke="black" stroke-width="8" stroke-linecap="round" stroke-linejoin="round"/>
<path d="M239.445 67.5937H227.758C227.424 65.6771 226.81 63.9792 225.914 62.5C225.018 61 223.904 59.7292 222.57 58.6875C221.237 57.6458 219.716 56.8646 218.008 56.3437C216.32 55.8021 214.497 55.5313 212.539 55.5313C209.06 55.5313 205.977 56.4062 203.289 58.1562C200.602 59.8854 198.497 62.4271 196.977 65.7812C195.456 69.1146 194.695 73.1875 194.695 78C194.695 82.8958 195.456 87.0208 196.977 90.375C198.518 93.7083 200.622 96.2292 203.289 97.9375C205.977 99.625 209.049 100.469 212.508 100.469C214.424 100.469 216.216 100.219 217.883 99.7187C219.57 99.1979 221.081 98.4375 222.414 97.4375C223.768 96.4375 224.904 95.2083 225.82 93.75C226.758 92.2917 227.404 90.625 227.758 88.75L239.445 88.8125C239.008 91.8542 238.06 94.7083 236.602 97.375C235.164 100.042 233.279 102.396 230.945 104.438C228.612 106.458 225.883 108.042 222.758 109.187C219.633 110.312 216.164 110.875 212.352 110.875C206.727 110.875 201.706 109.573 197.289 106.969C192.872 104.365 189.393 100.604 186.852 95.6875C184.31 90.7708 183.039 84.875 183.039 78C183.039 71.1042 184.32 65.2083 186.883 60.3125C189.445 55.3958 192.935 51.6354 197.352 49.0312C201.768 46.4271 206.768 45.125 212.352 45.125C215.914 45.125 219.227 45.625 222.289 46.625C225.352 47.625 228.081 49.0937 230.477 51.0312C232.872 52.9479 234.841 55.3021 236.383 58.0938C237.945 60.8646 238.966 64.0313 239.445 67.5937ZM250.062 110V46H274.063C278.979 46 283.104 46.8542 286.438 48.5625C289.792 50.2708 292.323 52.6667 294.031 55.75C295.76 58.8125 296.625 62.3854 296.625 66.4687C296.625 70.5729 295.75 74.1354 294 77.1562C292.271 80.1562 289.719 82.4792 286.344 84.125C282.969 85.75 278.823 86.5625 273.906 86.5625H256.812V76.9375H272.344C275.219 76.9375 277.573 76.5417 279.406 75.75C281.24 74.9375 282.594 73.7604 283.469 72.2187C284.365 70.6562 284.813 68.7396 284.813 66.4687C284.813 64.1979 284.365 62.2604 283.469 60.6562C282.573 59.0312 281.208 57.8021 279.375 56.9687C277.542 56.1146 275.177 55.6875 272.281 55.6875H261.656V110H250.062ZM283.125 81L298.969 110H286.031L270.469 81H283.125ZM347.641 46H359.234V87.8125C359.234 92.3958 358.151 96.4271 355.984 99.9062C353.839 103.385 350.818 106.104 346.922 108.062C343.026 110 338.474 110.969 333.266 110.969C328.036 110.969 323.474 110 319.578 108.062C315.682 106.104 312.661 103.385 310.516 99.9062C308.37 96.4271 307.297 92.3958 307.297 87.8125V46H318.891V86.8437C318.891 89.5104 319.474 91.8854 320.641 93.9687C321.828 96.0521 323.495 97.6875 325.641 98.875C327.786 100.042 330.328 100.625 333.266 100.625C336.203 100.625 338.745 100.042 340.891 98.875C343.057 97.6875 344.724 96.0521 345.891 93.9687C347.057 91.8854 347.641 89.5104 347.641 86.8437V46ZM393.523 110H371.836V46H393.961C400.315 46 405.773 47.2812 410.336 49.8438C414.919 52.3854 418.44 56.0417 420.898 60.8125C423.357 65.5833 424.586 71.2917 424.586 77.9375C424.586 84.6042 423.346 90.3333 420.867 95.125C418.409 99.9167 414.857 103.594 410.211 106.156C405.586 108.719 400.023 110 393.523 110ZM383.43 99.9687H392.961C397.419 99.9687 401.138 99.1562 404.117 97.5312C407.096 95.8854 409.336 93.4375 410.836 90.1875C412.336 86.9167 413.086 82.8333 413.086 77.9375C413.086 73.0417 412.336 68.9792 410.836 65.75C409.336 62.5 407.117 60.0729 404.18 58.4688C401.263 56.8438 397.638 56.0312 393.305 56.0312H383.43V99.9687ZM489.477 66.8125H479.727C479.352 64.7292 478.654 62.8958 477.633 61.3125C476.612 59.7292 475.362 58.3854 473.883 57.2812C472.404 56.1771 470.747 55.3437 468.914 54.7812C467.102 54.2187 465.174 53.9375 463.133 53.9375C459.445 53.9375 456.143 54.8646 453.227 56.7188C450.331 58.5729 448.039 61.2917 446.352 64.875C444.685 68.4583 443.852 72.8333 443.852 78C443.852 83.2083 444.685 87.6042 446.352 91.1875C448.039 94.7708 450.341 97.4792 453.258 99.3125C456.174 101.146 459.456 102.062 463.102 102.062C465.122 102.062 467.039 101.792 468.852 101.25C470.685 100.687 472.341 99.8646 473.82 98.7812C475.299 97.6979 476.549 96.375 477.57 94.8125C478.612 93.2292 479.331 91.4167 479.727 89.375L489.477 89.4062C488.956 92.5521 487.945 95.4479 486.445 98.0937C484.966 100.719 483.06 102.99 480.727 104.906C478.414 106.802 475.768 108.271 472.789 109.312C469.81 110.354 466.56 110.875 463.039 110.875C457.497 110.875 452.56 109.562 448.227 106.937C443.893 104.292 440.477 100.51 437.977 95.5937C435.497 90.6771 434.258 84.8125 434.258 78C434.258 71.1667 435.508 65.3021 438.008 60.4062C440.508 55.4896 443.924 51.7187 448.258 49.0937C452.591 46.4479 457.518 45.125 463.039 45.125C466.435 45.125 469.602 45.6146 472.539 46.5938C475.497 47.5521 478.154 48.9687 480.508 50.8437C482.862 52.6979 484.81 54.9687 486.352 57.6562C487.893 60.3229 488.935 63.375 489.477 66.8125ZM530.688 90.0937V62H540.062V110H530.875V101.688H530.375C529.271 104.25 527.5 106.385 525.063 108.094C522.646 109.781 519.635 110.625 516.031 110.625C512.948 110.625 510.219 109.948 507.844 108.594C505.49 107.219 503.635 105.188 502.281 102.5C500.948 99.8125 500.281 96.4896 500.281 92.5312V62H509.625V91.4062C509.625 94.6771 510.531 97.2812 512.344 99.2187C514.156 101.156 516.51 102.125 519.406 102.125C521.156 102.125 522.896 101.687 524.625 100.812C526.375 99.9375 527.823 98.6146 528.969 96.8437C530.135 95.0729 530.708 92.8229 530.688 90.0937ZM552.617 128V62H561.742V69.7812H562.523C563.065 68.7812 563.846 67.625 564.867 66.3125C565.888 65 567.305 63.8542 569.117 62.875C570.93 61.875 573.326 61.375 576.305 61.375C580.18 61.375 583.638 62.3542 586.68 64.3125C589.721 66.2708 592.107 69.0937 593.836 72.7812C595.586 76.4687 596.461 80.9062 596.461 86.0937C596.461 91.2812 595.596 95.7292 593.867 99.4375C592.138 103.125 589.763 105.969 586.742 107.969C583.721 109.948 580.273 110.938 576.398 110.938C573.482 110.938 571.096 110.448 569.242 109.469C567.409 108.49 565.971 107.344 564.93 106.031C563.888 104.719 563.086 103.552 562.523 102.531H561.961V128H552.617ZM561.773 86C561.773 89.375 562.263 92.3333 563.242 94.875C564.221 97.4167 565.638 99.4062 567.492 100.844C569.346 102.26 571.617 102.969 574.305 102.969C577.096 102.969 579.43 102.229 581.305 100.75C583.18 99.25 584.596 97.2187 585.555 94.6562C586.534 92.0937 587.023 89.2083 587.023 86C587.023 82.8333 586.544 79.9896 585.586 77.4687C584.648 74.9479 583.232 72.9583 581.336 71.5C579.461 70.0417 577.117 69.3125 574.305 69.3125C571.596 69.3125 569.305 70.0104 567.43 71.4062C565.576 72.8021 564.169 74.75 563.211 77.25C562.253 79.75 561.773 82.6667 561.773 86Z" fill="black"/>
<defs>
<linearGradient id="paint0_linear_16_3" x1="155" y1="-0.281005" x2="-27.361" y2="110.062" gradientUnits="userSpaceOnUse">
<stop offset="0.00236228" stop-color="#FDB813"/>
<stop offset="1" stop-color="#E9AB16"/>
</linearGradient>
</defs>
</svg>
