<svg width="640" height="151" viewBox="0 0 640 151" fill="none" xmlns="http://www.w3.org/2000/svg">
<path d="M104.073 24.942C107.912 22.5826 110.472 18.302 110.472 13.4821C110.472 6.03326 104.443 0 97 0C89.5566 0 83.5278 6.03326 83.5278 13.4821C83.5278 18.3357 86.0875 22.5826 89.9271 24.942L70.6281 63.5683C67.5632 69.7027 59.6146 71.4554 54.2594 67.1748L24.25 43.1429C25.934 40.8846 26.9444 38.0871 26.9444 35.0536C26.9444 27.6047 20.9156 21.5714 13.4722 21.5714C6.02882 21.5714 0 27.6047 0 35.0536C0 42.5025 6.02882 48.5357 13.4722 48.5357H13.708L29.1 133.271C30.9524 143.517 39.8778 151 50.3187 151H143.681C154.089 151 163.014 143.551 164.9 133.271L180.292 48.5357H180.528C187.971 48.5357 194 42.5025 194 35.0536C194 27.6047 187.971 21.5714 180.528 21.5714C173.084 21.5714 167.056 27.6047 167.056 35.0536C167.056 38.0871 168.066 40.8846 169.75 43.1429L139.741 67.1748C134.385 71.4554 126.437 69.7027 123.372 63.5683L104.073 24.942Z" fill="url(#paint0_linear_16_3)"/>
<path d="M278.445 65.5937H266.758C266.424 63.6771 265.81 61.9792 264.914 60.5C264.018 59 262.904 57.7292 261.57 56.6875C260.237 55.6458 258.716 54.8646 257.008 54.3437C255.32 53.8021 253.497 53.5313 251.539 53.5313C248.06 53.5313 244.977 54.4062 242.289 56.1562C239.602 57.8854 237.497 60.4271 235.977 63.7812C234.456 67.1146 233.695 71.1875 233.695 76C233.695 80.8958 234.456 85.0208 235.977 88.375C237.518 91.7083 239.622 94.2292 242.289 95.9375C244.977 97.625 248.049 98.4687 251.508 98.4687C253.424 98.4687 255.216 98.2187 256.883 97.7187C258.57 97.1979 260.081 96.4375 261.414 95.4375C262.768 94.4375 263.904 93.2083 264.82 91.75C265.758 90.2917 266.404 88.625 266.758 86.75L278.445 86.8125C278.008 89.8542 277.06 92.7083 275.602 95.375C274.164 98.0417 272.279 100.396 269.945 102.438C267.612 104.458 264.883 106.042 261.758 107.187C258.633 108.312 255.164 108.875 251.352 108.875C245.727 108.875 240.706 107.573 236.289 104.969C231.872 102.365 228.393 98.6042 225.852 93.6875C223.31 88.7708 222.039 82.875 222.039 76C222.039 69.1042 223.32 63.2083 225.883 58.3125C228.445 53.3958 231.935 49.6354 236.352 47.0312C240.768 44.4271 245.768 43.125 251.352 43.125C254.914 43.125 258.227 43.625 261.289 44.625C264.352 45.625 267.081 47.0937 269.477 49.0312C271.872 50.9479 273.841 53.3021 275.383 56.0938C276.945 58.8646 277.966 62.0313 278.445 65.5937ZM289.062 108V44H313.063C317.979 44 322.104 44.8542 325.438 46.5625C328.792 48.2708 331.323 50.6667 333.031 53.75C334.76 56.8125 335.625 60.3854 335.625 64.4687C335.625 68.5729 334.75 72.1354 333 75.1562C331.271 78.1562 328.719 80.4792 325.344 82.125C321.969 83.75 317.823 84.5625 312.906 84.5625H295.812V74.9375H311.344C314.219 74.9375 316.573 74.5417 318.406 73.75C320.24 72.9375 321.594 71.7604 322.469 70.2187C323.365 68.6562 323.813 66.7396 323.813 64.4687C323.813 62.1979 323.365 60.2604 322.469 58.6562C321.573 57.0312 320.208 55.8021 318.375 54.9687C316.542 54.1146 314.177 53.6875 311.281 53.6875H300.656V108H289.062ZM322.125 79L337.969 108H325.031L309.469 79H322.125ZM386.641 44H398.234V85.8125C398.234 90.3958 397.151 94.4271 394.984 97.9062C392.839 101.385 389.818 104.104 385.922 106.062C382.026 108 377.474 108.969 372.266 108.969C367.036 108.969 362.474 108 358.578 106.062C354.682 104.104 351.661 101.385 349.516 97.9062C347.37 94.4271 346.297 90.3958 346.297 85.8125V44H357.891V84.8437C357.891 87.5104 358.474 89.8854 359.641 91.9687C360.828 94.0521 362.495 95.6875 364.641 96.875C366.786 98.0417 369.328 98.625 372.266 98.625C375.203 98.625 377.745 98.0417 379.891 96.875C382.057 95.6875 383.724 94.0521 384.891 91.9687C386.057 89.8854 386.641 87.5104 386.641 84.8437V44ZM432.523 108H410.836V44H432.961C439.315 44 444.773 45.2812 449.336 47.8438C453.919 50.3854 457.44 54.0417 459.898 58.8125C462.357 63.5833 463.586 69.2917 463.586 75.9375C463.586 82.6042 462.346 88.3333 459.867 93.125C457.409 97.9167 453.857 101.594 449.211 104.156C444.586 106.719 439.023 108 432.523 108ZM422.43 97.9687H431.961C436.419 97.9687 440.138 97.1562 443.117 95.5312C446.096 93.8854 448.336 91.4375 449.836 88.1875C451.336 84.9167 452.086 80.8333 452.086 75.9375C452.086 71.0417 451.336 66.9792 449.836 63.75C448.336 60.5 446.117 58.0729 443.18 56.4688C440.263 54.8438 436.638 54.0312 432.305 54.0312H422.43V97.9687ZM528.477 64.8125H518.727C518.352 62.7292 517.654 60.8958 516.633 59.3125C515.612 57.7292 514.362 56.3854 512.883 55.2812C511.404 54.1771 509.747 53.3437 507.914 52.7812C506.102 52.2187 504.174 51.9375 502.133 51.9375C498.445 51.9375 495.143 52.8646 492.227 54.7188C489.331 56.5729 487.039 59.2917 485.352 62.875C483.685 66.4583 482.852 70.8333 482.852 76C482.852 81.2083 483.685 85.6042 485.352 89.1875C487.039 92.7708 489.341 95.4792 492.258 97.3125C495.174 99.1458 498.456 100.062 502.102 100.062C504.122 100.062 506.039 99.7917 507.852 99.25C509.685 98.6875 511.341 97.8646 512.82 96.7812C514.299 95.6979 515.549 94.375 516.57 92.8125C517.612 91.2292 518.331 89.4167 518.727 87.375L528.477 87.4062C527.956 90.5521 526.945 93.4479 525.445 96.0937C523.966 98.7188 522.06 100.99 519.727 102.906C517.414 104.802 514.768 106.271 511.789 107.312C508.81 108.354 505.56 108.875 502.039 108.875C496.497 108.875 491.56 107.562 487.227 104.937C482.893 102.292 479.477 98.5104 476.977 93.5937C474.497 88.6771 473.258 82.8125 473.258 76C473.258 69.1667 474.508 63.3021 477.008 58.4062C479.508 53.4896 482.924 49.7187 487.258 47.0937C491.591 44.4479 496.518 43.125 502.039 43.125C505.435 43.125 508.602 43.6146 511.539 44.5938C514.497 45.5521 517.154 46.9687 519.508 48.8437C521.862 50.6979 523.81 52.9687 525.352 55.6562C526.893 58.3229 527.935 61.375 528.477 64.8125ZM569.688 88.0937V60H579.062V108H569.875V99.6875H569.375C568.271 102.25 566.5 104.385 564.063 106.094C561.646 107.781 558.635 108.625 555.031 108.625C551.948 108.625 549.219 107.948 546.844 106.594C544.49 105.219 542.635 103.188 541.281 100.5C539.948 97.8125 539.281 94.4896 539.281 90.5312V60H548.625V89.4062C548.625 92.6771 549.531 95.2812 551.344 97.2187C553.156 99.1562 555.51 100.125 558.406 100.125C560.156 100.125 561.896 99.6875 563.625 98.8125C565.375 97.9375 566.823 96.6146 567.969 94.8437C569.135 93.0729 569.708 90.8229 569.688 88.0937ZM591.617 126V60H600.742V67.7812H601.523C602.065 66.7812 602.846 65.625 603.867 64.3125C604.888 63 606.305 61.8542 608.117 60.875C609.93 59.875 612.326 59.375 615.305 59.375C619.18 59.375 622.638 60.3542 625.68 62.3125C628.721 64.2708 631.107 67.0937 632.836 70.7812C634.586 74.4687 635.461 78.9062 635.461 84.0937C635.461 89.2812 634.596 93.7292 632.867 97.4375C631.138 101.125 628.763 103.969 625.742 105.969C622.721 107.948 619.273 108.938 615.398 108.938C612.482 108.938 610.096 108.448 608.242 107.469C606.409 106.49 604.971 105.344 603.93 104.031C602.888 102.719 602.086 101.552 601.523 100.531H600.961V126H591.617ZM600.773 84C600.773 87.375 601.263 90.3333 602.242 92.875C603.221 95.4167 604.638 97.4062 606.492 98.8437C608.346 100.26 610.617 100.969 613.305 100.969C616.096 100.969 618.43 100.229 620.305 98.75C622.18 97.25 623.596 95.2187 624.555 92.6562C625.534 90.0937 626.023 87.2083 626.023 84C626.023 80.8333 625.544 77.9896 624.586 75.4687C623.648 72.9479 622.232 70.9583 620.336 69.5C618.461 68.0417 616.117 67.3125 613.305 67.3125C610.596 67.3125 608.305 68.0104 606.43 69.4062C604.576 70.8021 603.169 72.75 602.211 75.25C601.253 77.75 600.773 80.6667 600.773 84Z" fill="black"/>
<defs>
<linearGradient id="paint0_linear_16_3" x1="194" y1="-0.273753" x2="-0.355553" y2="150.816" gradientUnits="userSpaceOnUse">
<stop offset="0.00236228" stop-color="#FDB813"/>
<stop offset="1" stop-color="#E9AB16"/>
</linearGradient>
</defs>
</svg>
